<?xml version="1.0" encoding="UTF-8"?>
<svg width="23px" height="41px" viewBox="0 0 23 41" version="1.1" xmlns="http://www.w3.org/2000/svg" xmlns:xlink="http://www.w3.org/1999/xlink">
    <!-- Generator: Sketch 50.2 (55047) - http://www.bohemiancoding.com/sketch -->
    <title>gb</title>
    <desc>Created with Sketch.</desc>
    <defs></defs>
    <g id="Page-1" stroke="none" stroke-width="1" fill="none" fill-rule="evenodd">
        <g id="Part-exchange" transform="translate(-36.000000, -332.000000)">
            <g id="Group-12" transform="translate(15.000000, 239.000000)">
                <g id="Group-Copy" transform="translate(15.000000, 80.000000)">
                    <g id="gb" transform="translate(6.000000, 13.000000)">
                        <g id="Page-1" transform="translate(0.479999, 0.679999)" fill="#FFD200">
                            <polygon id="Fill-1" points="2.88003881 5.03999957 3.219933 6.14007191 4.31999963 6.14007191 3.43007213 6.81992697 3.77004443 7.91999932 2.88003881 7.24006212 1.99003319 7.91999932 2.3300055 6.81992697 1.43999988 6.14007191 2.54006651 6.14007191"></polygon>
                            <polygon id="Fill-2" points="6.4800385 1.43999988 6.81993269 2.54007222 7.91999932 2.54007222 7.03007182 3.21992728 7.37004412 4.31999963 6.4800385 3.64006243 5.59003288 4.31999963 5.93000519 3.21992728 5.03999957 2.54007222 6.1400662 2.54007222"></polygon>
                            <polygon id="Fill-3" points="10.7999991 0 10.4600957 1.10015448 9.35999919 1.10015448 10.2499508 1.78000954 9.90996931 2.87999975 10.7999991 2.20014469 11.6900288 2.87999975 11.3500473 1.78000954 12.2399989 1.10015448 11.1399025 1.10015448"></polygon>
                            <polygon id="Fill-4" points="15.8400377 1.43999988 16.1799319 2.54007222 17.2799985 2.54007222 16.3899929 3.21992728 16.7300433 4.31999963 15.8400377 3.64006243 14.949954 4.31999963 15.2900044 3.21992728 14.3999988 2.54007222 15.5000654 2.54007222"></polygon>
                            <polygon id="Fill-5" points="19.4400374 5.03999957 19.7799316 6.14007191 20.8799982 6.14007191 19.9899926 6.81992697 20.330043 7.91999932 19.4400374 7.24006212 18.5499536 7.91999932 18.8900041 6.81992697 17.9999985 6.14007191 19.1000651 6.14007191"></polygon>
                            <polygon id="Fill-6" points="20.5400948 11.1801342 19.4399983 11.1801342 20.3300281 11.8600281 19.9899684 12.9599989 20.8800763 12.280105 21.7701061 12.9599989 21.4299683 11.8600281 22.3199981 11.1801342 21.2199016 11.1801342 20.8800763 10.0799991"></polygon>
                            <polygon id="Fill-7" points="19.4400374 15.1199987 19.7799316 16.2201024 20.8799982 16.2201024 19.9899926 16.8999769 20.330043 17.9999985 19.4400374 17.3200419 18.5499536 17.9999985 18.8900041 16.8999769 17.9999985 16.2201024 19.1000651 16.2201024"></polygon>
                            <polygon id="Fill-8" points="15.8400377 17.9999985 16.1799319 19.1001022 17.2799985 19.1001022 16.3899929 19.7799766 16.7300433 20.8799982 15.8400377 20.2000416 14.949954 20.8799982 15.2900044 19.7799766 14.3999988 19.1001022 15.5000654 19.1001022"></polygon>
                            <polygon id="Fill-9" points="11.1800473 20.5400513 10.0799991 20.5400513 10.9699749 21.2199451 10.629906 22.3199981 11.5200381 21.6401042 12.410092 22.3199981 12.0700231 21.2199451 12.9599989 20.5400513 11.8598726 20.5400513 11.5200381 19.4399983"></polygon>
                            <polygon id="Fill-10" points="6.4800385 17.9999985 6.81993269 19.1001022 7.91999932 19.1001022 7.0299937 19.7799766 7.37004412 20.8799982 6.4800385 20.2000416 5.58995476 20.8799982 5.93000519 19.7799766 5.03999957 19.1001022 6.1400662 19.1001022"></polygon>
                            <polygon id="Fill-11" points="2.88003881 14.3999988 3.219933 15.5001025 4.31999963 15.5001025 3.42999401 16.1799769 3.77004443 17.2799985 2.88003881 16.6000419 1.98995507 17.2799985 2.3300055 16.1799769 1.43999988 15.5001025 2.54006651 15.5001025"></polygon>
                            <polygon id="Fill-12" points="1.10009338 11.1800894 0 11.1800894 0.889991865 11.8599899 0.549930654 12.9599989 1.44007723 12.280017 2.3300691 12.9599989 1.99000789 11.8599899 2.87999975 11.1800894 1.77990637 11.1800894 1.44007723 10.0799991"></polygon>
                        </g>
                        <path d="M9.89039863,38.7135968 C9.48719665,39.2319993 9.04080115,39.5943956 8.55119875,39.8007967 C8.06159634,40.0071977 7.56720133,40.1103966 7.06799887,40.1103966 C6.28079501,40.1103966 5.57280215,39.973598 4.94399906,39.6999967 C4.31519597,39.4263953 3.78480132,39.0495991 3.35279919,38.5695968 C2.92079707,38.0895944 2.58960041,37.5256001 2.35919928,36.8775969 C2.12879815,36.2295937 2.01359931,35.5312008 2.01359931,34.7823971 C2.01359931,34.0143933 2.12879815,33.3016005 2.35919928,32.6439973 C2.58960041,31.986394 2.92079707,31.4127998 3.35279919,30.9231974 C3.78480132,30.433595 4.31519597,30.0495989 4.94399906,29.7711975 C5.57280215,29.4927962 6.28079501,29.3535976 7.06799887,29.3535976 C7.59600147,29.3535976 8.10719631,29.4327968 8.60159874,29.5911975 C9.09600117,29.7495983 9.54239667,29.982396 9.94079863,30.2895975 C10.3392006,30.596799 10.6679973,30.9759952 10.9271985,31.4271974 C11.1863998,31.8783996 11.3447982,32.3967944 11.4023985,32.9823972 L9.24239869,32.9823972 C9.10799803,32.4063944 8.84880064,31.9743988 8.46479875,31.6863974 C8.08079687,31.3983959 7.61520156,31.2543974 7.06799887,31.2543974 C6.55919637,31.2543974 6.12720073,31.3527964 5.77199899,31.5495974 C5.41679724,31.7463983 5.12880015,32.0103957 4.90799906,32.3415973 C4.68719798,32.6727989 4.5263996,33.0495951 4.4255991,33.4719972 C4.32479861,33.8943993 4.27439912,34.3311949 4.27439912,34.7823971 C4.27439912,35.2143992 4.32479861,35.634395 4.4255991,36.042397 C4.5263996,36.450399 4.68719798,36.8175953 4.90799906,37.1439969 C5.12880015,37.4703985 5.41679724,37.7319959 5.77199899,37.9287968 C6.12720073,38.1255978 6.55919637,38.2239968 7.06799887,38.2239968 C7.81680255,38.2239968 8.39519672,38.0343987 8.80319873,37.6551968 C9.21120073,37.275995 9.44879833,36.7264005 9.51599866,36.006397 L7.24079886,36.006397 L7.24079886,34.3215971 L11.5607985,34.3215971 L11.5607985,39.8799967 L10.1207986,39.8799967 L9.89039863,38.7135968 Z M15.6503981,33.7599972 L17.9399979,33.7599972 C18.3431999,33.7599972 18.6743966,33.6639981 18.9335979,33.4719972 C19.1927991,33.2799963 19.3223978,32.9679994 19.3223978,32.5359973 C19.3223978,32.2959961 19.2791983,32.0991981 19.1927978,31.9455973 C19.1063974,31.7919966 18.9911986,31.6719978 18.8471979,31.5855974 C18.7031972,31.4991969 18.5375988,31.4391975 18.3503979,31.4055974 C18.163197,31.3719972 17.9687989,31.3551974 17.767198,31.3551974 L15.6503981,31.3551974 L15.6503981,33.7599972 Z M13.3895983,29.5983975 L18.2279979,29.5983975 C18.7176003,29.5983975 19.1639958,29.6415971 19.5671978,29.7279975 C19.9703998,29.814398 20.3159963,29.9559965 20.6039977,30.1527975 C20.8919991,30.3495985 21.1151969,30.6111958 21.2735977,30.9375974 C21.4319984,31.263999 21.5111976,31.667195 21.5111976,32.1471973 C21.5111976,32.6655999 21.3935988,33.0975955 21.1583977,33.4431972 C20.9231965,33.7887989 20.5752,34.071996 20.1143978,34.2927971 C20.7480009,34.475198 21.2207961,34.7943948 21.5327976,35.2503971 C21.8447992,35.7063993 22.0007976,36.2559937 22.0007976,36.8991969 C22.0007976,37.4175995 21.8999986,37.8663949 21.6983976,38.2455968 C21.4967966,38.6247987 21.2255994,38.9343955 20.8847977,39.1743967 C20.543996,39.4143979 20.1551999,39.5919961 19.7183978,39.7071967 C19.2815956,39.8223972 18.8328002,39.8799967 18.3719979,39.8799967 L13.3895983,39.8799967 L13.3895983,29.5983975 Z M15.6503981,38.1231968 L18.0695979,38.1231968 C18.290399,38.1231968 18.5015969,38.101597 18.7031979,38.0583968 C18.9047989,38.0151966 19.0823971,37.9431973 19.2359978,37.8423968 C19.3895986,37.7415963 19.5119973,37.6047977 19.6031978,37.4319969 C19.6943982,37.259196 19.7399978,37.0383982 19.7399978,36.7695969 C19.7399978,36.2415943 19.5911993,35.8647981 19.2935978,35.639197 C18.9959964,35.4135959 18.6024003,35.300797 18.1127979,35.300797 L15.6503981,35.300797 L15.6503981,38.1231968 Z" id="GB" fill="#FFEA00"></path>
                    </g>
                </g>
            </g>
        </g>
    </g>
</svg>